<svg width="18" height="18" viewBox="0 0 18 18" fill="none" xmlns="http://www.w3.org/2000/svg">
  <path d="M0 0H18V18H0V0Z" fill="#f0f0f0"/>
  <path d="M15.75 14.325H2.25V3.75H15.75V14.325ZM15.75 2.25H2.25C1.425 2.25 0.75 2.925 0.75 3.75V14.25C0.75 15.075 1.425 15.75 2.25 15.75H15.75C16.575 15.75 17.25 15.075 17.25 14.25V3.75C17.25 2.925 16.575 2.25 15.75 2.25Z" fill="#697077"/>
  <path d="M10.9425 6L9 7.9425L7.0575 6L6 7.0575L7.9425 9L6 10.9425L7.0575 12L9 10.0575L10.9425 12L12 10.9425L10.0575 9L12 7.0575L10.9425 6Z" fill="#697077"/>
</svg>
