<svg width="17" height="18" viewBox="0 0 17 18" fill="none" xmlns="http://www.w3.org/2000/svg">
<path d="M15.9135 5.41172L14.4401 6.90775C14.2899 7.06027 14.047 7.06027 13.8968 6.90775L10.3492 3.30559C10.199 3.15306 10.199 2.90643 10.3492 2.75391L11.8226 1.25787C12.4202 0.651022 13.3918 0.651022 13.9927 1.25787L15.9135 3.20823C16.5143 3.81508 16.5143 4.80162 15.9135 5.41172ZM9.08357 4.039L0.690805 12.5609L0.0132475 16.5038C-0.0794373 17.036 0.377595 17.4968 0.901743 17.4059L4.78492 16.7147L13.1777 8.19285C13.3279 8.04032 13.3279 7.79369 13.1777 7.64116L9.63009 4.039C9.47668 3.88648 9.23379 3.88648 9.08357 4.039ZM3.96673 11.8307C3.79095 11.6522 3.79095 11.3666 3.96673 11.1882L8.88862 6.19056C9.0644 6.01208 9.34565 6.01208 9.52143 6.19056C9.69721 6.36905 9.69721 6.65462 9.52143 6.83311L4.59955 11.8307C4.42377 12.0092 4.14251 12.0092 3.96673 11.8307ZM2.81297 14.5599H4.34706V15.7379L2.28562 16.1046L1.29166 15.0954L1.65281 13.0022H2.81297V14.5599Z" fill="white"/>
</svg>
