<svg width="32" height="32" viewBox="0 0 32 32" fill="none" xmlns="http://www.w3.org/2000/svg">
<path d="M32 16C32 24.8366 24.8366 32 16 32C7.16344 32 0 24.8366 0 16C0 7.16344 7.16344 0 16 0C24.8366 0 32 7.16344 32 16Z" fill="#242424"/>
<path d="M17.8496 11.0469H19.1621V17.7803C19.1621 18.5277 18.9958 19.1497 18.6631 19.6465C18.3304 20.1432 17.8883 20.5169 17.3369 20.7676C16.79 21.0137 16.1953 21.1367 15.5527 21.1367C14.8783 21.1367 14.2676 21.0137 13.7207 20.7676C13.1784 20.5169 12.7477 20.1432 12.4287 19.6465C12.1143 19.1497 11.957 18.5277 11.957 17.7803V11.0469H13.2627V17.7803C13.2627 18.2998 13.3584 18.7282 13.5498 19.0654C13.7412 19.4027 14.0078 19.6533 14.3496 19.8174C14.696 19.9814 15.097 20.0635 15.5527 20.0635C16.013 20.0635 16.4141 19.9814 16.7559 19.8174C17.1022 19.6533 17.3711 19.4027 17.5625 19.0654C17.7539 18.7282 17.8496 18.2998 17.8496 17.7803V11.0469Z" fill="white"/>
</svg>
