<svg width="20" height="20" viewBox="0 0 20 20" fill="none" xmlns="http://www.w3.org/2000/svg">
<path d="M19.959 11.7194V19.0984H15.681V12.2134C15.681 10.4834 15.062 9.30337 13.514 9.30337C12.332 9.30337 11.628 10.0994 11.319 10.8684C11.206 11.1434 11.177 11.5264 11.177 11.9114V19.0984H6.897C6.897 19.0984 6.955 7.43837 6.897 6.22937H11.177V8.05337L11.149 8.09537H11.177V8.05337C11.745 7.17837 12.76 5.92737 15.033 5.92737C17.848 5.92737 19.959 7.76737 19.959 11.7194ZM2.421 0.0263672C0.958 0.0263672 0 0.986367 0 2.24937C0 3.48437 0.93 4.47337 2.365 4.47337H2.393C3.886 4.47337 4.813 3.48437 4.813 2.24937C4.787 0.986367 3.887 0.0263672 2.422 0.0263672H2.421ZM0.254 19.0984H4.532V6.22937H0.254V19.0984Z" fill="white"/>
</svg>
