<svg width="18" height="18" viewBox="0 0 18 18" fill="none" xmlns="http://www.w3.org/2000/svg">
  <path d="M0 0H18V18H0V0Z" fill="white"/>
  <path d="M9 16.5H3.75C3.35218 16.5 2.97064 16.342 2.68934 16.0607C2.40804 15.7794 2.25 15.3978 2.25 15L2.2575 4.5C2.2575 3.675 2.9175 3 3.75 3H4.5V1.5H6V3H12V1.5H13.5V3H14.25C15.075 3 15.75 3.675 15.75 4.5V9H14.25V7.5H3.75V15H9V16.5ZM16.5975 12.7425L17.13 12.21C17.1995 12.1406 17.2547 12.0582 17.2923 11.9675C17.33 11.8767 17.3493 11.7795 17.3493 11.6812C17.3493 11.583 17.33 11.4858 17.2923 11.395C17.2547 11.3043 17.1995 11.2219 17.13 11.1525L16.5975 10.62C16.5281 10.5505 16.4457 10.4953 16.355 10.4577C16.2642 10.42 16.167 10.4007 16.0687 10.4007C15.9705 10.4007 15.8733 10.42 15.7825 10.4577C15.6918 10.4953 15.6094 10.5505 15.54 10.62L15.0075 11.1525L16.5975 12.7425ZM16.065 13.275L12.09 17.25H10.5V15.66L14.475 11.685L16.065 13.275Z" fill="#0F172A"/>
</svg>

